<svg xmlns="http://www.w3.org/2000/svg" xmlns:xlink="http://www.w3.org/1999/xlink" width="500" zoomAndPan="magnify" viewBox="0 0 375 374.999991" height="500" preserveAspectRatio="xMidYMid meet" version="1.0"><defs><g/></defs><rect x="-37.5" width="450" fill="#ffffff" y="-37.499999" height="449.999989" fill-opacity="1"/><rect x="-37.5" width="450" fill="#ffffff" y="-37.499999" height="449.999989" fill-opacity="1"/><rect x="-37.5" width="450" fill="#ffffff" y="-37.499999" height="449.999989" fill-opacity="1"/><g fill="#000000" fill-opacity="1"><g transform="translate(66.338722, 249.442662)"><g><path d="M 10.339844 -172.300781 L 10.339844 0 L 55.136719 0 L 55.136719 -0.515625 C 33.769531 -27.742188 18.4375 -64.785156 18.4375 -99.589844 C 28.085938 -64.613281 83.046875 -69.609375 83.046875 -20.847656 C 83.046875 -15.851562 81.496094 -5.859375 77.535156 -0.515625 L 77.535156 0 L 113.027344 0 C 129.742188 -75.984375 33.253906 -63.921875 33.253906 -98.210938 C 33.253906 -113.890625 47.726562 -143.871094 78.742188 -143.871094 C 92.007812 -143.871094 102.863281 -138.703125 109.066406 -131.121094 L 109.582031 -131.121094 L 109.582031 -172.300781 C 105.621094 -173.332031 101.65625 -174.023438 97.695312 -174.023438 C 58.753906 -174.023438 25.5 -128.191406 26.878906 -95.972656 C 12.234375 -118.371094 26.878906 -160.582031 52.550781 -171.78125 L 52.550781 -172.300781 Z M 10.339844 -172.300781 "/></g></g></g><g fill="#000000" fill-opacity="1"><g transform="translate(312.321517, 121.267402)"><g><path d="M -6.890625 86.320312 C -6.890625 33.425781 -32.046875 -1.722656 -69.609375 -1.722656 C -107.34375 -1.722656 -132.5 33.425781 -132.5 86.320312 C -132.5 138.875 -107.34375 174.023438 -69.609375 174.023438 C -32.046875 174.023438 -6.890625 138.875 -6.890625 86.320312 Z M -54.617188 160.929688 C -80.636719 160.929688 -103.722656 130.949219 -112.167969 85.976562 C -120.609375 41.007812 -109.238281 11.027344 -83.394531 11.027344 C -57.375 11.027344 -34.289062 41.007812 -25.84375 85.976562 C -17.402344 131.121094 -28.773438 160.929688 -54.617188 160.929688 Z M -54.617188 160.929688 "/></g></g></g><path stroke-linecap="round" transform="matrix(-0.750465, -0.000000000000000092, 0.000000000000000092, -0.75, 153.649257, 277.569767)" fill="none" stroke-linejoin="miter" d="M 1.999852 1.999272 L 123.924224 1.999272 " stroke="#000000" stroke-width="4" stroke-opacity="1" stroke-miterlimit="4"/><path stroke-linecap="round" transform="matrix(0.750465, 0, 0, 0.75, 216.448598, 93.147277)" fill="none" stroke-linejoin="miter" d="M 1.999587 2.001547 L 123.923959 2.001547 " stroke="#000000" stroke-width="4" stroke-opacity="1" stroke-miterlimit="4"/></svg>